HIERARCHY
ROOT Hips
{
	OFFSET 0.000000 0.000000 0.000000
	CHANNELS 6 Xposition Yposition Zposition Zrotation Yrotation Xrotation 
	JOINT LHipJoint
	{
		OFFSET 0.000000 0.000000 0.000000
		CHANNELS 3 Zrotation Yrotation Xrotation
		JOINT LeftUpLeg
		{
			OFFSET 1.363060 -1.794630 0.839290
			CHANNELS 3 Zrotation Yrotation Xrotation
			JOINT LeftLeg
			{
				OFFSET 2.448110 -6.726130 0.000000
				CHANNELS 3 Zrotation Yrotation Xrotation
				JOINT LeftFoot
				{
					OFFSET 2.562200 -7.039590 0.000000
					CHANNELS 3 Zrotation Yrotation Xrotation
					JOINT LeftToeBase
					{
						OFFSET 0.157640 -0.433110 2.322550
						CHANNELS 3 Zrotation Yrotation Xrotation
						End Site
						{
							OFFSET 0.000000 0.000000 0.000000
						}
					}
				}
			}
		}
	}
	JOINT RHipJoint
	{
		OFFSET 0.000000 0.000000 0.000000
		CHANNELS 3 Zrotation Yrotation Xrotation
		JOINT RightUpLeg
		{
			OFFSET -1.305520 -1.794630 0.839290
			CHANNELS 3 Zrotation Yrotation Xrotation
			JOINT RightLeg
			{
				OFFSET -2.542530 -6.985550 0.000000
				CHANNELS 3 Zrotation Yrotation Xrotation
				JOINT RightFoot
				{
					OFFSET -2.568260 -7.056230 0.000000
					CHANNELS 3 Zrotation Yrotation Xrotation
					JOINT RightToeBase
					{
						OFFSET -0.164730 -0.452590 2.363150
						CHANNELS 3 Zrotation Yrotation Xrotation
						End Site
						{
							OFFSET 0.000000 0.000000 0.000000
						}
					}
				}
			}
		}
	}
	JOINT LowerBack
	{
		OFFSET 0.000000 0.000000 0.000000
		CHANNELS 3 Zrotation Yrotation Xrotation
		JOINT Spine
		{
			OFFSET 0.028270 2.035590 -0.193380
			CHANNELS 3 Zrotation Yrotation Xrotation
			JOINT Spine1
			{
				OFFSET 0.056720 2.048850 -0.042750
				CHANNELS 3 Zrotation Yrotation Xrotation
				JOINT Neck
				{
					OFFSET 0.000000 0.000000 0.000000
					CHANNELS 3 Zrotation Yrotation Xrotation
					JOINT Neck1
					{
						OFFSET -0.054170 1.746240 0.172020
						CHANNELS 3 Zrotation Yrotation Xrotation
						JOINT Head
						{
							OFFSET 0.104070 1.761360 -0.123970
							CHANNELS 3 Zrotation Yrotation Xrotation
							End Site
							{
								OFFSET 0.000000 0.000000 0.000000
							}
						}
					}
				}
				JOINT LeftShoulder
				{
					OFFSET 0.000000 0.000000 0.000000
					CHANNELS 3 Zrotation Yrotation Xrotation
					JOINT LeftArm
					{
						OFFSET 3.362410 1.200890 -0.311210
						CHANNELS 3 Zrotation Yrotation Xrotation
						JOINT LeftForeArm
						{
							OFFSET 4.983000 -0.000000 -0.000000
							CHANNELS 3 Zrotation Yrotation Xrotation
							JOINT LeftHand
							{
								OFFSET 3.483560 -0.000000 -0.000000
								CHANNELS 3 Zrotation Yrotation Xrotation
								JOINT LeftFingerBase
								{
									OFFSET 0.000000 0.000000 0.000000
									CHANNELS 3 Zrotation Yrotation Xrotation
									JOINT LeftHandIndex1
									{
										OFFSET 0.715260 -0.000000 -0.000000
										CHANNELS 3 Zrotation Yrotation Xrotation
										End Site
										{
											OFFSET 0.000000 0.000000 0.000000
										}
									}
								}
								JOINT LThumb
								{
									OFFSET 0.000000 0.000000 0.000000
									CHANNELS 3 Zrotation Yrotation Xrotation
									End Site
									{
										OFFSET 0.000000 0.000000 0.000000
									}
								}
							}
						}
					}
				}
				JOINT RightShoulder
				{
					OFFSET 0.000000 0.000000 0.000000
					CHANNELS 3 Zrotation Yrotation Xrotation
					JOINT RightArm
					{
						OFFSET -3.136600 1.374050 -0.404650
						CHANNELS 3 Zrotation Yrotation Xrotation
						JOINT RightForeArm
						{
							OFFSET -5.241900 -0.000000 -0.000000
							CHANNELS 3 Zrotation Yrotation Xrotation
							JOINT RightHand
							{
								OFFSET -3.444170 -0.000000 -0.000000
								CHANNELS 3 Zrotation Yrotation Xrotation
								JOINT RightFingerBase
								{
									OFFSET 0.000000 0.000000 0.000000
									CHANNELS 3 Zrotation Yrotation Xrotation
									JOINT RightHandIndex1
									{
										OFFSET -0.622530 -0.000000 -0.000000
										CHANNELS 3 Zrotation Yrotation Xrotation
										End Site
										{
											OFFSET 0.000000 0.000000 0.000000
										}
									}
								}
								JOINT RThumb
								{
									OFFSET 0.000000 0.000000 0.000000
									CHANNELS 3 Zrotation Yrotation Xrotation
									End Site
									{
										OFFSET 0.000000 0.000000 0.000000
									}
								}
							}
						}
					}
				}
			}
		}
	}
}
MOTION
Frames: 11
Frame Time: 0.033333
0.176802 27.012636 10.186177 5.092767 6.949176 8.515472 -7.242334 15.322947 6.862248 -2.273072 -37.087527 -34.715276 -28.270544 -8.678222 54.923977 -0.962370 -20.050306 55.575767 0.000000 0.000000 0.000000 6.933490 -13.734612 8.198368 2.649685 8.245750 -20.044482 3.436049 -9.530205 27.153538 0.162036 1.278302 -8.073502 0.000000 0.000000 0.000000 4.377313 1.304502 -8.053108 -9.053761 0.790260 30.499342 0.872301 0.210140 -19.416874 4.760295 -0.456120 -8.243205 -0.175321 -0.003712 -0.926164 0.000000 0.000000 0.000000 -1.035356 12.531432 6.675646 -66.503533 -6.578689 15.495852 -45.342587 -43.941669 0.400037 -1.950788 -10.698394 0.198523 -1.945087 -10.707017 0.000000 0.000000 0.000000 0.000000 0.000000 0.000000 0.000000 -3.677245 -15.736424 7.111686 67.328783 2.434310 19.537822 17.661077 75.978419 0.384757 -0.843604 12.433082 0.189923 -0.864561 12.435769 0.000000 0.000000 0.000000 0.000000 0.000000 0.000000 0.000000 
0.159030 27.130719 10.376087 4.903543 6.339042 8.782421 -7.339806 13.725889 6.878284 -1.820651 -35.721777 -33.607595 -27.353208 -8.477698 52.933745 -1.542869 -18.057552 56.865882 0.000000 0.000000 0.000000 7.544920 -12.815751 7.845074 2.133928 7.992504 -19.645634 3.627423 -9.510954 26.959341 0.182368 1.210596 -8.026386 0.000000 0.000000 0.000000 3.746645 1.307948 -7.581377 -8.139829 0.700921 29.350944 0.707292 0.370118 -19.119287 4.797389 -0.477667 -8.322552 -0.287664 -0.015373 -0.891075 0.000000 0.000000 0.000000 -1.068249 12.691196 6.710877 -66.553746 -6.438310 15.596376 -45.223691 -44.383412 0.403625 -1.948375 -10.769642 0.200300 -1.942776 -10.778279 0.000000 0.000000 0.000000 0.000000 0.000000 0.000000 0.000000 -3.767954 -15.537727 7.271433 67.258888 2.580516 19.350202 18.133642 75.400445 0.383148 -0.773440 12.394589 0.189181 -0.793649 12.397440 0.000000 0.000000 0.000000 0.000000 0.000000 0.000000 0.000000 
0.142297 27.241190 10.566925 4.807454 6.066597 8.985588 -7.108778 12.826112 6.729599 -2.297255 -35.090412 -32.452174 -26.460804 -8.405999 51.761434 -1.792760 -16.835502 57.535695 0.000000 0.000000 0.000000 7.934576 -12.206697 7.600569 1.762015 7.781723 -19.334545 3.844752 -9.506723 26.754427 0.176700 1.570467 -8.985572 0.000000 0.000000 0.000000 3.078929 1.212323 -6.989114 -7.245916 0.523971 28.070703 0.582193 0.439045 -18.715625 4.798260 -0.492991 -8.309272 -0.369360 -0.024119 -0.846055 0.000000 0.000000 0.000000 -1.080303 12.775436 6.775361 -66.612174 -6.290918 15.811628 -45.001842 -45.107344 0.411172 -1.936955 -10.887724 0.204038 -1.931512 -10.896428 0.000000 0.000000 0.000000 0.000000 0.000000 0.000000 0.000000 -3.822668 -15.385097 7.414023 67.164485 2.723844 19.158451 18.580166 74.831647 0.381138 -0.707744 12.354904 0.188234 -0.727281 12.357897 0.000000 0.000000 0.000000 0.000000 0.000000 0.000000 0.000000 
0.126530 27.343023 10.759770 4.690851 5.862590 9.129285 -6.770564 12.212828 6.561249 -3.031811 -34.595630 -31.364010 -25.508714 -8.249741 50.903567 -1.824269 -15.805823 57.837816 0.000000 0.000000 0.000000 8.132241 -11.778028 7.357729 1.608897 7.689835 -19.071872 4.047628 -9.475600 26.635456 0.146993 2.346899 -10.741074 0.000000 0.000000 0.000000 2.477721 1.107689 -6.405429 -6.399943 0.354476 26.867491 0.488601 0.485576 -18.282908 4.804683 -0.508140 -8.315002 -0.457745 -0.032575 -0.824018 0.000000 0.000000 0.000000 -1.061455 12.817686 6.855138 -66.697124 -6.134539 16.132943 -44.671608 -46.126929 0.422677 -1.916792 -11.051397 0.209739 -1.911580 -11.060216 0.000000 0.000000 0.000000 0.000000 0.000000 0.000000 0.000000 -3.886434 -15.224252 7.543002 67.081207 2.886860 18.957621 18.992537 74.275481 0.378742 -0.649145 12.312972 0.187090 -0.668088 12.316078 0.000000 0.000000 0.000000 0.000000 0.000000 0.000000 0.000000 
0.111705 27.435908 10.955109 4.595893 5.806025 9.205444 -6.245305 12.007211 6.337900 -4.242945 -34.377886 -30.331132 -24.469235 -8.042322 50.506849 -1.620594 -15.084769 57.634631 0.000000 0.000000 0.000000 8.114665 -11.562294 7.144177 1.654040 7.697458 -18.864917 4.260156 -9.414829 26.558779 0.090295 3.479253 -13.165081 0.000000 0.000000 0.000000 1.920101 0.968953 -5.826047 -5.615455 0.168293 25.761902 0.438485 0.487856 -17.827390 4.820285 -0.523973 -8.344341 -0.555092 -0.041054 -0.826664 0.000000 0.000000 0.000000 -1.010964 12.804565 6.951954 -66.811182 -5.970437 16.570468 -44.198694 -47.467749 0.438425 -1.884214 -11.263657 0.217542 -1.879306 -11.272641 0.000000 0.000000 0.000000 0.000000 0.000000 0.000000 0.000000 -3.956795 -15.066045 7.654570 67.007227 3.067093 18.749575 19.368287 73.735338 0.376024 -0.597889 12.269074 0.185781 -0.616313 12.272268 0.000000 0.000000 0.000000 0.000000 0.000000 0.000000 0.000000 
0.097824 27.518838 11.153056 4.523656 5.886569 9.190952 -5.539277 12.186475 6.079173 -5.935271 -34.381856 -29.315798 -23.276781 -7.770107 50.523796 -1.195930 -14.617871 56.853969 0.000000 0.000000 0.000000 7.879931 -11.564894 6.951985 1.921251 7.802713 -18.701795 4.432104 -9.325257 26.557015 0.017701 4.847114 -16.017400 0.000000 0.000000 0.000000 1.422320 0.806138 -5.298232 -4.921324 -0.023494 24.897275 0.438044 0.451100 -17.415444 4.871286 -0.544047 -8.451446 -0.677170 -0.051148 -0.862786 0.000000 0.000000 0.000000 -0.929184 12.742003 7.050002 -66.958382 -5.813947 17.059916 -43.616789 -48.973230 0.456085 -1.840711 -11.496642 0.226289 -1.836126 -11.505813 0.000000 0.000000 0.000000 0.000000 0.000000 0.000000 0.000000 -4.055118 -14.906906 7.744824 66.965613 3.255373 18.546896 19.678900 73.252935 0.373185 -0.557926 12.226121 0.184405 -0.575934 12.229371 0.000000 0.000000 0.000000 0.000000 0.000000 0.000000 0.000000 
0.085112 27.591378 11.353672 4.463914 6.077516 9.082625 -4.686143 12.713327 5.794654 -8.059896 -34.522990 -28.288586 -21.873716 -7.416018 50.880415 -0.565060 -14.329581 55.428218 0.000000 0.000000 0.000000 7.442291 -11.778736 6.784187 2.410768 7.996601 -18.565713 4.552147 -9.189007 26.607099 -0.063259 6.342535 -19.045664 0.000000 0.000000 0.000000 0.998276 0.627508 -4.841075 -4.330983 -0.216488 24.316265 0.490500 0.382004 -17.064097 4.965474 -0.570034 -8.649580 -0.830936 -0.063640 -0.938445 0.000000 0.000000 0.000000 -0.818806 12.634214 7.146460 -67.139076 -5.664383 17.607078 -42.892516 -50.664150 0.475740 -1.781955 -11.752178 0.236021 -1.777692 -11.761555 0.000000 0.000000 0.000000 0.000000 0.000000 0.000000 0.000000 -4.182400 -14.741116 7.811523 66.956927 3.454157 18.354815 19.919226 72.839518 0.370365 -0.529801 12.185110 0.183031 -0.547492 12.188387 0.000000 0.000000 0.000000 0.000000 0.000000 0.000000 0.000000 
0.073801 27.653004 11.556680 4.399582 6.349000 8.881753 -3.728113 13.535984 5.487934 -10.548417 -34.701596 -27.205580 -20.194897 -6.971495 51.476414 0.244628 -14.137434 53.270333 0.000000 0.000000 0.000000 6.824653 -12.187913 6.643915 3.122541 8.267651 -18.431103 4.605843 -8.988871 26.683827 -0.145265 7.860624 -22.003111 0.000000 0.000000 0.000000 0.655659 0.440367 -4.457300 -3.839509 -0.408247 24.022951 0.591815 0.288943 -16.781275 5.105581 -0.602921 -8.939649 -1.019461 -0.079224 -1.053785 0.000000 0.000000 0.000000 -0.686030 12.490001 7.238690 -67.349924 -5.520623 18.206359 -41.996399 -52.532687 0.496912 -1.703220 -12.027575 0.246494 -1.699216 -12.037171 0.000000 0.000000 0.000000 0.000000 0.000000 0.000000 0.000000 -4.337491 -14.564866 7.855520 66.977998 3.663759 18.176820 20.092600 72.496834 0.367686 -0.512691 12.146609 0.181722 -0.530151 12.149890 0.000000 0.000000 0.000000 0.000000 0.000000 0.000000 0.000000 
0.064238 27.703969 11.761771 4.315870 6.669525 8.581021 -2.728707 14.599487 5.172056 -13.278143 -34.814905 -26.047157 -18.215810 -6.439658 52.200984 1.174475 -13.955850 50.352128 0.000000 0.000000 0.000000 6.057292 -12.773696 6.548495 4.043621 8.595179 -18.265957 4.571934 -8.716089 26.759846 -0.220682 9.291802 -24.644198 0.000000 0.000000 0.000000 0.415594 0.254826 -4.180622 -3.469261 -0.590088 24.086506 0.750715 0.180738 -16.588524 5.305239 -0.645010 -9.342405 -1.253340 -0.099338 -1.218076 0.000000 0.000000 0.000000 -0.530094 12.313034 7.322779 -67.594386 -5.383078 18.860363 -40.873313 -54.606915 0.519314 -1.596172 -12.324554 0.257558 -1.592278 -12.334369 0.000000 0.000000 0.000000 0.000000 0.000000 0.000000 0.000000 -4.525354 -14.368949 7.873654 67.032517 3.888620 18.018773 20.189197 72.242571 0.365286 -0.507952 12.111835 0.180545 -0.525272 12.115093 0.000000 0.000000 0.000000 0.000000 0.000000 0.000000 0.000000 
0.056182 27.743529 11.968113 4.181428 7.009815 8.190914 -1.726416 15.841186 4.827346 -16.165559 -34.719072 -24.772536 -15.816924 -5.797284 52.912486 2.158770 -13.654072 46.521189 0.000000 0.000000 0.000000 5.168499 -13.512829 6.452368 5.226165 8.968340 -18.033720 4.382128 -8.385796 26.882860 -0.283116 10.553577 -26.821937 0.000000 0.000000 0.000000 0.262924 0.073685 -3.928107 -3.152946 -0.767876 24.339564 0.933498 0.066274 -16.447952 5.537282 -0.692931 -9.798700 -1.512458 -0.123012 -1.405953 0.000000 0.000000 0.000000 -0.368742 12.123207 7.400252 -67.852964 -5.248192 19.528777 -39.528449 -56.794459 0.540926 -1.457857 -12.628414 0.268202 -1.453766 -12.638417 0.000000 0.000000 0.000000 0.000000 0.000000 0.000000 0.000000 -4.729654 -14.162413 7.875763 67.100688 4.119541 17.879010 20.240190 72.043658 0.363176 -0.510147 12.080058 0.179508 -0.527374 12.083281 0.000000 0.000000 0.000000 0.000000 0.000000 0.000000 0.000000 
0.050035 27.772299 12.175552 3.989027 7.341412 7.699678 -0.789194 17.210083 4.462362 -19.044067 -34.306984 -23.407500 -13.019237 -5.045771 53.485003 3.075311 -13.141771 41.813586 0.000000 0.000000 0.000000 4.198206 -14.384020 6.362362 6.650959 9.348800 -17.699768 4.000756 -8.020127 27.059371 -0.325867 11.556059 -28.379889 0.000000 0.000000 0.000000 0.214907 -0.093652 -3.725345 -2.917225 -0.930782 24.841670 1.149875 -0.046746 -16.374961 5.812833 -0.748097 -10.323779 -1.803593 -0.151383 -1.624476 0.000000 0.000000 0.000000 -0.198429 11.922517 7.467952 -68.128685 -5.118338 20.200150 -37.907027 -59.113409 0.560764 -1.277826 -12.938771 0.277923 -1.273041 -12.948897 0.000000 0.000000 0.000000 0.000000 0.000000 0.000000 0.000000 -4.954633 -13.937468 7.858586 67.186676 4.360576 17.762585 20.235076 71.917119 0.361442 -0.520810 12.052399 0.178654 -0.538000 12.055574 0.000000 0.000000 0.000000 0.000000 0.000000 0.000000 0.000000 
